{"accessors":[{"name":"Node-Mesh_0_positions","componentType":5126,"count":14140,"min":[-14.150389671325684,-9.286972999572754,-6.968965530395508],"max":[16.484228134155273,10.067423820495605,6.738146781921387],"type":"VEC3","bufferView":0,"byteOffset":0},{"name":"Node-Mesh_0_indices","componentType":5123,"count":84828,"min":[0],"max":[14139],"type":"SCALAR","bufferView":1,"byteOffset":0}],"asset":{"generator":"obj2gltf","version":"2.0"},"buffers":[{"name":"S14_Calypso_30k","byteLength":339336,"uri":"data:application/octet-stream;base64,"}],"bufferViews":[{"name":"bufferView_0","buffer":0,"byteLength":169680,"byteOffset":0,"byteStride":12,"target":34962},{"name":"bufferView_1","buffer":0,"byteLength":169656,"byteOffset":169680,"target":34963}],"materials":[{"name":"default","pbrMetallicRoughness":{"baseColorFactor":[0.5,0.5,0.5,1],"metallicFactor":0,"roughnessFactor":1},"emissiveFactor":[0,0,0],"alphaMode":"OPAQUE","doubleSided":false}],"meshes":[{"name":"Node-Mesh","primitives":[{"attributes":{"POSITION":0},"indices":1,"material":0,"mode":4}]}],"nodes":[{"name":"Node","mesh":0}],"scene":0,"scenes":[{"nodes":[0]}]}