{"accessors":[{"name":"Node-Mesh_0_positions","componentType":5126,"count":5186,"min":[-129.6132049560547,-124.25640106201172,-75.55549621582031],"max":[117.94660186767578,116.86920166015625,82.90390014648438],"type":"VEC3","bufferView":0,"byteOffset":0},{"name":"Node-Mesh_0_indices","componentType":5123,"count":31104,"min":[0],"max":[5185],"type":"SCALAR","bufferView":1,"byteOffset":0}],"asset":{"generator":"obj2gltf","version":"2.0"},"buffers":[{"name":"7_Iris_2019","byteLength":124440,"uri":"data:application/octet-stream;base64,"}],"bufferViews":[{"name":"bufferView_0","buffer":0,"byteLength":62232,"byteOffset":0,"byteStride":12,"target":34962},{"name":"bufferView_1","buffer":0,"byteLength":62208,"byteOffset":62232,"target":34963}],"materials":[{"name":"default","pbrMetallicRoughness":{"baseColorFactor":[0.5,0.5,0.5,1],"metallicFactor":0,"roughnessFactor":1},"emissiveFactor":[0,0,0],"alphaMode":"OPAQUE","doubleSided":false}],"meshes":[{"name":"Node-Mesh","primitives":[{"attributes":{"POSITION":0},"indices":1,"material":0,"mode":4}]}],"nodes":[{"name":"Node","mesh":0}],"scene":0,"scenes":[{"nodes":[0]}]}