{"accessors":[{"name":"Node-Mesh_0_positions","componentType":5126,"count":13736,"min":[-20.163150787353516,-16.1951961517334,-10.50455379486084],"max":[20.413318634033203,15.266095161437988,11.046953201293945],"type":"VEC3","bufferView":0,"byteOffset":0},{"name":"Node-Mesh_0_indices","componentType":5123,"count":82404,"min":[0],"max":[13735],"type":"SCALAR","bufferView":1,"byteOffset":0}],"asset":{"generator":"obj2gltf","version":"2.0"},"buffers":[{"name":"S18_Pan_30k","byteLength":329640,"uri":"data:application/octet-stream;base64,"}],"bufferViews":[{"name":"bufferView_0","buffer":0,"byteLength":164832,"byteOffset":0,"byteStride":12,"target":34962},{"name":"bufferView_1","buffer":0,"byteLength":164808,"byteOffset":164832,"target":34963}],"materials":[{"name":"default","pbrMetallicRoughness":{"baseColorFactor":[0.5,0.5,0.5,1],"metallicFactor":0,"roughnessFactor":1},"emissiveFactor":[0,0,0],"alphaMode":"OPAQUE","doubleSided":false}],"meshes":[{"name":"Node-Mesh","primitives":[{"attributes":{"POSITION":0},"indices":1,"material":0,"mode":4}]}],"nodes":[{"name":"Node","mesh":0}],"scene":0,"scenes":[{"nodes":[0]}]}